<svg width="388" height="359" viewBox="0 0 388 359" fill="none" xmlns="http://www.w3.org/2000/svg">
<g filter="url(#filter0_i_1715_17942)">
<path d="M116.667 198.334H163.334V233.334H116.667V198.334Z" fill="url(#paint0_linear_1715_17942)"/>
<path d="M35.0007 163.334H245.001V175H35.0007V163.334Z" fill="url(#paint1_linear_1715_17942)"/>
<path d="M81.6673 239.167C81.6673 235.945 84.279 233.334 87.5006 233.334H192.501C195.722 233.334 198.334 235.945 198.334 239.167C198.334 242.389 195.722 245 192.501 245H87.5006C84.279 245 81.6673 242.389 81.6673 239.167Z" fill="url(#paint2_linear_1715_17942)"/>
<path fill-rule="evenodd" clip-rule="evenodd" d="M245.001 59.3943H35.0007V173.94H245.001V59.3943ZM35.0007 46.667C28.5573 46.667 23.334 52.3652 23.334 59.3943V173.94C23.334 180.969 28.5573 186.667 35.0007 186.667H245.001C251.444 186.667 256.667 180.969 256.667 173.94V59.3943C256.667 52.3652 251.444 46.667 245.001 46.667H35.0007Z" fill="url(#paint3_linear_1715_17942)"/>
</g>
<g opacity="0.2" filter="url(#filter1_i_1715_17942)">
<path d="M224.667 198.334H271.334V233.334H224.667V198.334Z" fill="url(#paint4_linear_1715_17942)"/>
<path d="M143.001 163.334H353.001V175H143.001V163.334Z" fill="url(#paint5_linear_1715_17942)"/>
<path d="M189.667 239.167C189.667 235.945 192.279 233.334 195.501 233.334H300.501C303.722 233.334 306.334 235.945 306.334 239.167C306.334 242.389 303.722 245 300.501 245H195.501C192.279 245 189.667 242.389 189.667 239.167Z" fill="url(#paint6_linear_1715_17942)"/>
<path fill-rule="evenodd" clip-rule="evenodd" d="M353.001 59.3943H143.001V173.94H353.001V59.3943ZM143.001 46.667C136.557 46.667 131.334 52.3652 131.334 59.3943V173.94C131.334 180.969 136.557 186.667 143.001 186.667H353.001C359.444 186.667 364.667 180.969 364.667 173.94V59.3943C364.667 52.3652 359.444 46.667 353.001 46.667H143.001Z" fill="url(#paint7_linear_1715_17942)"/>
</g>
<g filter="url(#filter2_i_1715_17942)">
<path d="M225.931 317.754L196.773 291.465C195.698 290.51 193.999 291.273 193.999 292.711L193.999 305.667L182.333 305.667C181.412 305.667 180.666 306.413 180.666 307.333L180.666 330.667C180.666 331.587 181.412 332.333 182.333 332.333L193.999 332.333L193.999 345.288C193.999 346.726 195.698 347.489 196.773 346.534L225.931 320.245C226.677 319.582 226.677 318.417 225.931 317.754Z" fill="url(#paint8_linear_1715_17942)"/>
<path d="M165.666 305.667C166.586 305.667 167.333 306.413 167.333 307.333L167.333 330.667C167.333 331.587 166.586 332.333 165.666 332.333L162.333 332.333C161.412 332.333 160.666 331.587 160.666 330.667L160.666 307.333C160.666 306.413 161.412 305.667 162.333 305.667L165.666 305.667Z" fill="url(#paint9_linear_1715_17942)"/>
<path d="M177.333 307.333C177.333 306.413 176.586 305.667 175.666 305.667L172.333 305.667C171.412 305.667 170.666 306.413 170.666 307.333L170.666 330.667C170.666 331.587 171.412 332.333 172.333 332.333L175.666 332.333C176.586 332.333 177.333 331.587 177.333 330.667L177.333 307.333Z" fill="url(#paint10_linear_1715_17942)"/>
</g>
<defs>
<filter id="filter0_i_1715_17942" x="0" y="0" width="280" height="284" filterUnits="userSpaceOnUse" color-interpolation-filters="sRGB">
<feFlood flood-opacity="0" result="BackgroundImageFix"/>
<feBlend mode="normal" in="SourceGraphic" in2="BackgroundImageFix" result="shape"/>
<feColorMatrix in="SourceAlpha" type="matrix" values="0 0 0 0 0 0 0 0 0 0 0 0 0 0 0 0 0 0 127 0" result="hardAlpha"/>
<feOffset dy="4"/>
<feGaussianBlur stdDeviation="2"/>
<feComposite in2="hardAlpha" operator="arithmetic" k2="-1" k3="1"/>
<feColorMatrix type="matrix" values="0 0 0 0 0 0 0 0 0 0 0 0 0 0 0 0 0 0 0.25 0"/>
<feBlend mode="normal" in2="shape" result="effect1_innerShadow_1715_17942"/>
</filter>
<filter id="filter1_i_1715_17942" x="108" y="0" width="280" height="284" filterUnits="userSpaceOnUse" color-interpolation-filters="sRGB">
<feFlood flood-opacity="0" result="BackgroundImageFix"/>
<feBlend mode="normal" in="SourceGraphic" in2="BackgroundImageFix" result="shape"/>
<feColorMatrix in="SourceAlpha" type="matrix" values="0 0 0 0 0 0 0 0 0 0 0 0 0 0 0 0 0 0 127 0" result="hardAlpha"/>
<feOffset dy="4"/>
<feGaussianBlur stdDeviation="2"/>
<feComposite in2="hardAlpha" operator="arithmetic" k2="-1" k3="1"/>
<feColorMatrix type="matrix" values="0 0 0 0 0 0 0 0 0 0 0 0 0 0 0 0 0 0 0.25 0"/>
<feBlend mode="normal" in2="shape" result="effect1_innerShadow_1715_17942"/>
</filter>
<filter id="filter2_i_1715_17942" x="154" y="279" width="80" height="84" filterUnits="userSpaceOnUse" color-interpolation-filters="sRGB">
<feFlood flood-opacity="0" result="BackgroundImageFix"/>
<feBlend mode="normal" in="SourceGraphic" in2="BackgroundImageFix" result="shape"/>
<feColorMatrix in="SourceAlpha" type="matrix" values="0 0 0 0 0 0 0 0 0 0 0 0 0 0 0 0 0 0 127 0" result="hardAlpha"/>
<feOffset dy="4"/>
<feGaussianBlur stdDeviation="2"/>
<feComposite in2="hardAlpha" operator="arithmetic" k2="-1" k3="1"/>
<feColorMatrix type="matrix" values="0 0 0 0 0 0 0 0 0 0 0 0 0 0 0 0 0 0 0.25 0"/>
<feBlend mode="normal" in2="shape" result="effect1_innerShadow_1715_17942"/>
</filter>
<linearGradient id="paint0_linear_1715_17942" x1="140.001" y1="46.667" x2="140.001" y2="245" gradientUnits="userSpaceOnUse">
<stop stop-color="#6D95D6"/>
<stop offset="1" stop-color="#406CB3"/>
</linearGradient>
<linearGradient id="paint1_linear_1715_17942" x1="140.001" y1="46.667" x2="140.001" y2="245" gradientUnits="userSpaceOnUse">
<stop stop-color="#6D95D6"/>
<stop offset="1" stop-color="#406CB3"/>
</linearGradient>
<linearGradient id="paint2_linear_1715_17942" x1="140.001" y1="46.667" x2="140.001" y2="245" gradientUnits="userSpaceOnUse">
<stop stop-color="#6D95D6"/>
<stop offset="1" stop-color="#406CB3"/>
</linearGradient>
<linearGradient id="paint3_linear_1715_17942" x1="140.001" y1="46.667" x2="140.001" y2="245" gradientUnits="userSpaceOnUse">
<stop stop-color="#6D95D6"/>
<stop offset="1" stop-color="#406CB3"/>
</linearGradient>
<linearGradient id="paint4_linear_1715_17942" x1="248.001" y1="46.667" x2="248.001" y2="245" gradientUnits="userSpaceOnUse">
<stop stop-color="#6D95D6"/>
<stop offset="1" stop-color="#406CB3"/>
</linearGradient>
<linearGradient id="paint5_linear_1715_17942" x1="248.001" y1="46.667" x2="248.001" y2="245" gradientUnits="userSpaceOnUse">
<stop stop-color="#6D95D6"/>
<stop offset="1" stop-color="#406CB3"/>
</linearGradient>
<linearGradient id="paint6_linear_1715_17942" x1="248.001" y1="46.667" x2="248.001" y2="245" gradientUnits="userSpaceOnUse">
<stop stop-color="#6D95D6"/>
<stop offset="1" stop-color="#406CB3"/>
</linearGradient>
<linearGradient id="paint7_linear_1715_17942" x1="248.001" y1="46.667" x2="248.001" y2="245" gradientUnits="userSpaceOnUse">
<stop stop-color="#6D95D6"/>
<stop offset="1" stop-color="#406CB3"/>
</linearGradient>
<linearGradient id="paint8_linear_1715_17942" x1="226.49" y1="319" x2="160.666" y2="319" gradientUnits="userSpaceOnUse">
<stop stop-color="#6D95D6"/>
<stop offset="1" stop-color="#406CB3"/>
</linearGradient>
<linearGradient id="paint9_linear_1715_17942" x1="226.49" y1="319" x2="160.666" y2="319" gradientUnits="userSpaceOnUse">
<stop stop-color="#6D95D6"/>
<stop offset="1" stop-color="#406CB3"/>
</linearGradient>
<linearGradient id="paint10_linear_1715_17942" x1="226.49" y1="319" x2="160.666" y2="319" gradientUnits="userSpaceOnUse">
<stop stop-color="#6D95D6"/>
<stop offset="1" stop-color="#406CB3"/>
</linearGradient>
</defs>
</svg>
